<?xml version="1.0" encoding="utf-8"?>
<!-- Generator: Adobe Illustrator 19.0.0, SVG Export Plug-In . SVG Version: 6.00 Build 0)  -->
<svg version="1.1" id="Layer_1" xmlns="http://www.w3.org/2000/svg" xmlns:xlink="http://www.w3.org/1999/xlink" x="0px" y="0px"
	 viewBox="0 0 200 200" style="enable-background:new 0 0 200 200;" xml:space="preserve">
<style type="text/css">
	.st0{fill:#FFFFFF;}
</style>
<g id="XMLID_1_">
	<path id="XMLID_260_" class="st0" d="M-1.3,200c23.3-1.3,59.9-9.6,100.7-45.9C150.9,108.1,183.6,39.8,200,0"/>
	<g id="XMLID_198_">
		<g id="XMLID_202_">
			<g id="XMLID_203_">
				<g id="XMLID_204_">
					<path id="XMLID_259_" class="st0" d="M202.5,1c-0.3-0.3-1-0.5-1,0l1.1,0.8L202.5,1z"/>
					<path id="XMLID_258_" class="st0" d="M199.1,2.8c0.4,0.7,1.2,1.7,2.5,1.9c-1-1-0.4-0.9-1.6-2c0-0.5,0.7-0.5,1.1-0.3
						c-0.3-0.3,0.5-0.5-0.1-1c-1.2,0.1-1.5,0.8-1,1.8C199.5,3.2,199.3,2.9,199.1,2.8z"/>
					<path id="XMLID_257_" class="st0" d="M179.6,40.3l0.3-0.2C179.7,40.2,179.7,40.2,179.6,40.3z"/>
					<path id="XMLID_256_" class="st0" d="M166.7,63c0.1-0.2,0-0.3-0.1-0.4C166.6,62.8,166.6,63,166.7,63z"/>
					<path id="XMLID_255_" class="st0" d="M163.2,66.1c0.1-0.1,0.1-0.1,0.2-0.2C163.3,66,163.1,66,163.2,66.1z"/>
					<path id="XMLID_254_" class="st0" d="M179.6,40.3l-0.7,0.4C179.3,41,179.4,40.6,179.6,40.3z"/>
					<path id="XMLID_253_" class="st0" d="M199.7,9.4c0-0.2-0.1-0.3-0.2-0.5c0,0.1,0,0.3,0,0.4C199.6,9.3,199.7,9.4,199.7,9.4z"/>
					<path id="XMLID_252_" class="st0" d="M183.7,29.5l0.1-0.2c-0.1-0.1-0.2-0.3-0.4-0.4L183.7,29.5z"/>
					<path id="XMLID_251_" class="st0" d="M187.2,21.4c-0.1,0.2,0.9,0.7,1.3,1c-0.4-0.3-0.5-0.5-0.5-0.7
						C187.8,21.6,187.6,21.5,187.2,21.4z"/>
					<path id="XMLID_250_" class="st0" d="M194.8,9.4l0-0.3C194.7,9.2,194.7,9.3,194.8,9.4z"/>
					<path id="XMLID_249_" class="st0" d="M180.7,35.1c-0.2-0.1-0.3-0.1-0.4-0.1C180.5,35,180.6,35.1,180.7,35.1z"/>
					<path id="XMLID_248_" class="st0" d="M9.6,204.2c0-0.1,0-0.1,0-0.2C9.6,204.2,9.6,204.2,9.6,204.2z"/>
					<path id="XMLID_247_" class="st0" d="M-1.3,199.7l0.1-0.1c0-0.2,0-0.4,0-0.6L-1.3,199.7z"/>
					<path id="XMLID_246_" class="st0" d="M157.9,72.4C157.9,72.4,157.9,72.4,157.9,72.4C157.9,72.1,157.9,72.2,157.9,72.4z"/>
					<path id="XMLID_245_" class="st0" d="M114.6,132.5c1.3,0.1,0,1.9,1.7,1.7C115.9,134,115.8,132.1,114.6,132.5z"/>
					<path id="XMLID_244_" class="st0" d="M199.5,9.6c0,0.1-0.1,0.2-0.1,0.3C199.5,9.8,199.5,9.7,199.5,9.6z"/>
					<path id="XMLID_243_" class="st0" d="M116.3,134.2L116.3,134.2l0.2,0C116.4,134.2,116.4,134.2,116.3,134.2z"/>
					<path id="XMLID_242_" class="st0" d="M148.5,88.5c0.2,0.1,0.4,0.1,0.5,0.1C148.9,88.6,148.7,88.5,148.5,88.5z"/>
					<path id="XMLID_241_" class="st0" d="M157.3,77.6l-0.3,0.2C157.2,77.8,157.2,77.7,157.3,77.6z"/>
					<path id="XMLID_240_" class="st0" d="M145.8,95.4c-0.2,0.1-0.3,0.1-0.4,0.4c0.1,0,0.1,0,0.2,0
						C145.5,95.6,145.5,95.5,145.8,95.4z"/>
					<path id="XMLID_239_" class="st0" d="M141.4,101.6c0.1,0,0.2,0,0.3,0c0-0.1,0.1-0.2,0.1-0.2L141.4,101.6z"/>
					<path id="XMLID_238_" class="st0" d="M32.8,198.5c-0.3-0.3-0.5-0.6-0.6-0.9C32.5,198.4,31.5,199,32.8,198.5z"/>
					<path id="XMLID_237_" class="st0" d="M199.2,9.2c0.2,0.2,0.3,0.3,0.4,0.4c0-0.1,0-0.2,0-0.3C199.4,9.2,199.3,9.1,199.2,9.2z"/>
					<path id="XMLID_236_" class="st0" d="M152.9,100.7l-0.8,0.9C152.3,101.4,152.6,101,152.9,100.7z"/>
					<path id="XMLID_235_" class="st0" d="M82.5,173.3l-0.2,0.3C82.5,173.6,82.6,173.5,82.5,173.3z"/>
					<path id="XMLID_234_" class="st0" d="M150.1,104.6c-0.4,0-0.8,0-1,0.1c0,0.1,0.1,0.2,0.2,0.3L150.1,104.6z"/>
					<path id="XMLID_233_" class="st0" d="M32.2,197.7L32.2,197.7L32.2,197.7z"/>
					<path id="XMLID_228_" class="st0" d="M25,202.4c1.2-0.2,0.2-1.5,0.2-2.4c1.3-0.8,0.9,0.9,1.6,1.5c0.8-0.6,1.1-2.1,1.7-2.2
						c0.1,0.2,0.3,0.3,0.2,0.6c0.6-1.4,2.7-0.8,3.3-2.5c0.1,0.1,0.2,0.2,0.2,0.3c-0.4-0.7-0.6-1.4-0.7-1.9c0.5-0.2,0.6-1.2,1.1-0.3
						c-0.3,0.1-0.2,0.5-0.3,0.8l0.4-0.6c0.9,1.2-0.6,0.7-0.3,1.7c0.9-0.8,1.7-2.2,2.6-2.1c0.6,1.2-1.7,1-0.3,1.8l-1.4-0.1
						c1.6,1.7-0.8,0.1,0.8,2c1.7-0.1,1.6-1.2,3.3-1.4c0.1-0.8-0.5-1-0.4-1.8c1.8-2.1,2.9,2.6,4,0.3c0.1-1-0.3-2.7,1.2-2.3l0.1,1.6
						c1.6-0.4,0.1-2.4,2-2c-0.1,0.7-1,1-0.7,1c1.5,0.7,0.4-1.1,1.2-1.4l0.7,1.2c1.5-0.9,2.9-2.5,4.6-3.5c0.1,0.4-0.1,0.9,0.5,1.1
						c1.9-1.6,4.8-2.1,7.3-2.4l0.3-1.5c0.2-0.1,0.6,0.3,0.5,0.6c1,0-0.3-0.7-0.1-1.3c0.4-0.3,0.9,0.3,0.8,0.7c1-1.6,3-4,5.1-3.7
						l-0.1,0.5c1.4-0.2,0.1-2.8,1.7-2.5l-0.1,0.3c1.4-0.5,2.6-1.4,3.8-2.1c0.6-0.4,1.2-0.7,1.9-0.9c0.6-0.2,1.3-0.3,2-0.2
						c-0.6-1.7,2.8-0.9,1.7-3c2,0.1,1.8,0.7,4.2,0.1c0.6-0.2-0.1-1.7,0.4-2.4l0.7,1l0.1-1.7l1.3,0.9l0.4-0.7c-0.3,0.1-0.8-0.1-1-0.4
						c0.6-1.1,2.7-0.9,3.1-0.4l1.5-2.4c0.2,0.4,0,0.8-0.1,1.3c0.4-1.8,1,0.9,1.3-0.8c-0.3-0.1-0.4-0.6-0.5-0.9
						c1,0.2,2.1-0.7,2.8-1.6l0.4,0.8c1.7-1,3-2.9,4.7-4.2c-0.9,0.2-1.7-1.1-1.2-1.6l1,0.9c-0.2-0.9-0.8,0-0.8-1.3
						c0.7-0.4,1.4,0.8,1.3,1.4l0.5-1c0.3,0.3,0.2,0.6,0.5,1c-0.2-0.9,2.1-0.1,1.7-1.6l0.3,0.3c1.7-1.4,2.1-2.4,3.5-3.6
						c-0.7-0.9,0-1.1-0.2-2.2c1.2-0.6,2.8-0.9,3.9-2.1c0.4-1.2-0.4-0.9-0.5-1.8c0.8,0.7,1.8-0.4,1.7,0.7c1.3-1.4,1.6-1.8,2.8-4
						c-0.5-0.1-0.8-0.1-0.9-0.4c0.2-0.4,1-0.4,1.3,0l0,0.2c0.9-2.9,6.5-2.2,6.5-5.3l0,0.2l0.7-2.4c0.8-0.6,0.1,1,1.1,0.9
						c0.4-2.9,2.8-2.5,3.3-4.7c3.2,0.9,3.4-4.2,6.2-4.4l-0.6-0.4c-0.2-0.9,0.7-0.2,1.1-0.4c-0.5-0.3-0.9,0-0.9-0.5
						c2.4-3.9,6.8-6.4,10.2-9.6c1.2-1.2-2.3-3,0.4-3.6l0.7,1.3c0.5-1.8,1.5-3.2,2.6-4.5c1.1-1.3,2.2-2.7,2.6-4.4
						c0.1,0.3,0.4,0.6,0.2,0.8c1.2,0,1.6-2,1-2.5c0.4-0.4,0.6,0.3,1.2,0.3c0.9-0.2,0.1-2.1,1.1-1.9c0.2,0,0.1,0.3,0.1,0.5
						c-0.1-0.6,1.3-1.7,0.2-2c1.1-0.7,1-2.2,2.1-2.7c-0.6-1.2,1.7-1.4,0.4-2.6c1.4,1.1,2.5-0.9,2.2-2.1c0.3,0.5,0.9-0.2,1.3,0.4
						c0.5-0.7,0.7-1.6-0.2-2c2.7-0.1,0.4-3.7,3.2-3c0.7-2.8,1.5-5.2,2.4-7.4c1.5,1-1.3,2.3,0.3,3.2c0.6-2.3,0.1-4.2,1.6-5.9
						c0.5-0.4,0.5,0.7,0.6,1c0.6-2.3,2.4-3.6,2.7-5.9c0.1,0.1,0.2,0.4,0.2,0.6c0.2-0.4,0.7-0.6,0-1l0,0.4c-1.3-0.1-1.3-2.6-1.8-3
						c1.7,1.8,1.5-1.4,3.5,1.1c0-0.3-0.2-0.8-0.7-1c0.3-0.2,0.7-0.2,1,0.5c0.4-1.4-0.6-1.5,0-2.6c0.3,0.2,0.3,0.5,0.7,0.9
						c-0.3-1-0.7-1.9,0.2-2.7c0.2,0.2,0.5,0.2,0.3,0.5c0.8-1.7-0.2-3.8,1.5-5.2c1.2,1.4,0.8-0.3,2.2,0.3l0.2-1.2l-0.9,0
						c0.5-0.8,0-2.1,0.8-2.6l0.2,0.9c0,0,0.2-0.4,0.3-0.9c0.2-0.4,0.3-0.9,0.3-0.9l-1,0.6c-0.2-1.2-1.7-0.8-0.7-1.8
						c0,0.3,0.5-0.8,1.5-0.8l0,0c-0.2-0.6-0.4-1.3,0.3-1.8c0.5,0.1,1.4,0.9,1.7,1c-0.9-1,0.8-2.1-0.1-3.3c0.2,0.3,0.9,0.7,1,0.7
						l-0.7-0.8c0.5-0.2,0.7-0.2,1.2,0.1c0.8-1.1-1.9-0.5-0.4-1.5c0,0.1,0.2,0.2,0.2,0.5c1.1-1.2,0.9-3,2-4.1
						c1.5,0.3-0.3,1.3,1.1,1.5c0.7-2,0.4-4.7,1.7-6.4l-0.3,0.3c-1.8-1.2,1.6-0.9,1.2-2.2c0,0.3,0.9,0.8,0.7,0.7c1-1.1,0.9-2.8,1.2-5
						l0.4,0.5c0.8-0.5,1.2-1.8,1.8-2.5c-0.4-0.5-0.1-0.9-0.9-1c4-1.1,0.9-5.4,4.2-6.5c-0.1,0.3,0.1,0.8,0.2,0.6l0.4-2.1
						c-0.9-0.2-0.6,0-1.5,0.1c-0.4-0.5-0.5-1.2-0.3-1.6c0.2,1.1,1.3,0.6,2,0.5c-0.3-0.1-0.5-0.3-0.8-0.4c2-0.3-1.6-1,0-1.8l0.4,0.3
						c0-0.6-0.3-1.3,0-1.8c1.1,0.2,0.2,0.7,1,1.2c0.3-0.8-1.1-2.4,0.2-2.6c0.1,0.4-0.1,0.9,0,1.4c1.5-0.2,1.2-0.4,1.7-0.9l-0.1,0
						l1.1-1.1L192,25c-2.1-2.1,0.4-2.2-0.7-4.2c1,2,0.8,0.6,1.9,1.2c0.5-0.2,1-0.5,1.3-0.3c-0.6-1,1.2-0.7,0.3-2.2
						c0.4,0.1,0.3-0.6,1.2-0.1c0.1-0.9-0.7-0.1-1.1-0.4c-0.7-1.8,2.8-2.2,1.9-4.7c0-1.8-1.1-2.6-1.1-4.3c0.8-0.2,1.1,1,1.1,1
						c0.9-0.5,1-1.2,0.9-2.1c0.2,0.3,0.6,0.2,1.1,0.2c0.2-0.6-1.1-0.9-0.3-1.5c0.3,0.3,0.9,0.7,1.2,1.2c0-0.8-0.4-1.8-0.4-2.7
						c0.7,0.1,0.8,0.8,1.1,1.3c0.1-0.9,0.3-2.3-0.6-3L199,4.9c0.1-0.3,0.9,0.2,1,0.5c0.5,1-0.8,0.8-1.1,0.7l0-0.6
						c-2.3-0.4-0.5,2.2-1.1,3.2l-1.3-1.1l0.8,1.6c-0.5,0.1-1.4-0.2-1.4-0.8c-1.1,0.4,0.3,0.9-0.9,1.1c-0.2,0-0.2-0.1-0.3-0.1
						l0.1,0.9c-0.3-0.3-1.1-0.3-0.7-0.7c-1.4,0.9,0.2,2.6-1.1,2.5l0-0.1c-0.3,2,1,0.7,1.8,2.6l-3.1-0.3l1,0.7
						c-0.1,0.2-0.4,0.5-0.8,0.2c0.5,1,0.5,0.1,1.1,0.8c-1.4,0.4-0.6,2.6-2.5,2c0.7,0.7,1-0.5,1.2,0.7c-2-0.6-0.2,1.2-1.4,1.6
						c-0.9-0.7,0-1.2-1.2-0.8c1.4,1.2-1.1,1.4-1.1,2.2c1.3,0.6-0.1,1.7-0.2,3c-0.4-0.3-1.7,1.8-2.7,2.6l-0.2-0.1
						c1.2,0.8,0.5,1.8,0.4,2.7c-0.8-0.4-1-0.7-1.2-1.3l-0.3,0.7c0.3,0.4,0.5,0.7,0.4,1.3l-0.9-0.7c-0.4,1,0.2,2.5-1,3.5
						c0.9,0.5,3.1,0.2,3,1.9c-0.5-0.2-1.4-0.6-1.4-1c0,0.1,0.2,0.6-0.1,0.7l-0.6-0.9c-0.7,0.4,0.6,0.6,0.2,1.1
						c-0.7-0.4-0.7,0.1-1.2-0.3c0-0.1,0.5-0.3,0.3-0.6c-0.4,0.4-1.1,0.9-1.7,0.8c0.4,0.2,1,0.5,0.9,0.9c-0.4,1-1-0.1-1.7,0.3
						c0.4,0.5-0.4,0.8,0.6,1.4c-0.1,0.3-0.7,0.1-1,0.1c0.2,0.7-1,2.4,0.4,2.4L180,40c0,0,0,0.1,0,0.1l0,0l0,0c0.2,2.2-2.3,3.1-2.7,5
						l-0.4-0.2c-0.1,1.2-0.9,2.3-0.5,3.3c-0.2,0.3-1,0.3-1.3,0c-0.1,0.9,0.2,1.2-0.9,1.9c-0.2-1.1-0.7,0-0.1-1
						c-0.8,0.8-1.5,0.7-1.1,2.2c-0.7-0.8-1.5,0.1-1.5,0.7l1-0.3c-0.1,0.6-0.4,1-0.8,1.4l-1-0.9c-2.5,1.2,0.5,4.8-2.7,5
						c0.5,1,1.2-0.7,1.9,0.2c-0.6,0.8-2.8,0.8-3,1.1c-1.3,0.9,1.1,2.1-0.1,3.1c0.5,0.1,1.7,0.5,1.6,1.7c-0.6,0.8-2.4,0.1-2.4-0.6
						c0.1-0.2,0.3-0.3,0.4-0.2c0-0.4,0-0.8-0.6-0.7l0.4,0.3c-0.7,0.2-1.3,1.4-1.8,0.8c0,0.9,0.5,0.7,1,0.3c-1.3,0.8-1,1.7-2.1,2.7
						c0.3-0.1,0.9,0.1,0.8,0.2c-1.5,1.4,0.3,1.2-0.1,2.5c-1,0.3-1.4-1.1-1.5,0.4c-0.8,0.5-1.2-0.5-1.3-1c0.2,1.5-1.7,1.7-2.2,2.2
						l0-0.7c0,0.4-0.2,0.7-0.3,1l1,0.2c-0.3,0.2-0.5,0.5-0.8,0.3c0.3,0.7,1.5,0.6,1.8,1.7c-0.7,0.2-0.3,1.6-1.5,1.1
						c1.2-1.1-1.2-0.5-0.7-1.7c0,0.3-0.2,0.6-0.5,0.8c-0.2,0-0.2-0.2-0.2-0.3c-1.8,0.7,0.9,1.3,0,2.6c-0.5-0.5-1.3-0.4-1.3-0.1
						c0.3-0.5,1.2,0.4,1.3,1.1c-1,0.6-0.2,1.1-0.6,1.6l0.5-0.4c0.5,0.5,0.2,0.9,0,1.6c-0.5-0.2,0-0.7-0.3-0.7c0.7,1.3-2,0.8-1.9,2.2
						c-0.7,0.2-1.2-0.7-1.7-0.5c0.1,1.5-1.5,0.6-1.5,2.1c1,0.2,0.8,0,1.1,1.3l0.5-2.1l0.5,1.9c0.3-0.5,0.2-1.5,0.5-1.7
						c0.3,1,0.2,0.8,1,0.9c-1.7,0-0.2,1.9-1.6,2.2l-2-1.3c-1.7,0.7-0.4,2.9-2,4.2l0.7-0.3c0.6,0.7-0.6,1.1-0.6,1.8
						c-0.6-0.5-1.1-0.3-1.6-0.4c0.5,0.3-0.8,1.2,0.4,2.2L148,91c-1.2,1.1,0.9,2.8-0.2,3.9c-0.5-0.9-1.3-0.6-1.2-1.8
						c-0.3,0.4-0.7,0.7-0.2,1c-0.6,0,0.1,1.8-0.8,1.7c0.2,0.4,0.8,0.9,0.4,1.3c-0.2,0-0.3-0.2-0.3-0.2c0.3,0.2-0.1,1,0.9,1.1
						c-2.9-0.1-2.4,3.7-4.9,3.6c-0.4,1.1-1,2.3-1.5,3.2c-0.2-0.2-0.3-0.2-0.1-0.3c-1.4,0.7,1.3,2-0.3,2.8c-1.5-0.1,0-1.1-0.7-1
						c-2.2-1.4-0.9,1.7-2.7,1.7l0-0.3c-1.2,0.1-0.4,2.2-1.4,3.1c0,0-0.1-0.2-0.3-0.2c0.5,1.5-0.2,3.2-0.7,4.4
						c-0.6-0.9-0.1-0.8-1-1.2c-0.2,0.5,1.4,0.9,0.9,2c-0.7-0.1-1.6,0.3-2.5-0.3l0.6-0.9c-1.5-0.5-0.8,1.1-1.4,1.4l-0.4-0.4
						c-0.9,1.4,0.3,2.4-0.9,3.7l0.5,0.2c0.6,1.7-1.2,0.1-0.9,1.6l-1.4-0.8c-0.1,0.7-0.2,2.7-0.7,3.8c-0.5-1.3-0.1-2.7-0.1-3.8
						c-0.4,0.5-1.3,1.7-0.9,2.5c0-0.3-0.1-0.8,0.3-0.8c0.5,1.4,0.3,2.6-0.5,3.6c-2.2-2.1-2.8,2-5.2,1.1c-0.6,2.4-3.3,3-4.8,5
						c2.4,0.9-0.4,0.6,1.5,2.1c-0.3,0.6-0.5,0.7-0.6,0.6c0,0-0.6,0.1-1.2,0.2c-0.6,0.1-1.2,0.2-1.2,0.2c-0.8-0.2,0-0.8-0.4-1.1
						c-1.1,0.8-1.1-0.3-2.2-0.1c0.8,0.5,0.6,1.2-0.2,1.5l1.6,0c-0.3,2.2-2.6-0.3-2.9,1.9l-0.1-1c-0.3,1-2.4,2.5-1.7,4.5
						c-0.3-0.1-0.9-0.4-0.8-0.8c-0.9,0.7-1.4,2-2,3.1c-0.6,1.1-1.2,2.1-2.3,2.3l-0.3-0.5c-0.2,0.4,0.2,1.3-0.6,1.2
						c-0.2-0.2-0.3-0.5-0.5-0.4c0,0.3-0.1,1.5-0.7,1.7l-0.1-0.8c-2.1,0.9-1.4,3.5-2.5,5.1c-1.2-1.3-2.8-0.5-3.7-0.2l-0.1-0.2
						c-2.1,1.5-2.4,3.9-3.7,6c-2.3-0.5-4.4,2.5-6.9,3.1c0.5,0,0.8,1.1,0.6,1.5c-0.7,0.1-0.5,1.9-1.4,0.6l0.2-0.1
						c-1.3-1-1.9,0.1-2.7,0.5l1.1,1.8c-3.7-1.1-4.3,4.5-7,3c-0.2,0.8-0.7,1.1-0.9,1.9l-0.6-1c-1.5,0.6-2.2,0.9-3.7,2.2l-0.1-0.9
						c-0.9,0.5,0.6,3.5-0.2,4.1l-1.2-1.3c-1.6,1-4,0.7-4.8,3c-0.1-0.2-0.3-0.7-0.1-0.9c-0.8,0.4-3.5,0.7-2.1,2.6
						c-0.7-1.3-1.8,0.8-2.4,1.9l-0.4-1.1c-0.1,1.7,0.1,2-0.8,2.9c-0.3,0-0.6-0.7-0.2-0.6c-1.1-0.1-0.2,1.3-1.5,1.3l0.1-0.8
						c-0.9,0.4-0.7,0.7-0.8,1.7c-0.4,0.7-1.8,0.6-2.4-0.3c0.2,0.6,0,1.6-0.6,1.6c-0.2-0.3-0.1-0.6-0.1-0.8c-1.8,0-1.7,2.2-3.2,1.7
						c-0.2-0.3-0.3-0.5-0.4-0.5c1.2-0.5,2.2-0.9,2.1-0.8c-0.4-0.9-1.5-0.6-1.3-2.3c-0.4,1-1,3.2-2.2,3.2c-0.1-0.1-0.2-0.1-0.3-0.3
						l0.1-0.1c-0.3,0-0.4,0.2-0.5,0.4c-0.4,0-0.6-0.1-0.9,0c-0.4-0.7-1.3,0-1.8,0.2c0.5,1-0.2,1.1,0.7,1.7c-0.1,0,0-0.2,0.3-0.3
						c0.1-0.1,0.1-0.1,0.2-0.2c0,0,0,0.1,0,0.1c0.3-0.2,0.7-0.4,1.2-0.6c-0.2,0.7-0.4,1.3-1.2,0.9c0,0.8,0,1.6,0,2
						c-1.3-1.2-2.9-1.4-3.4-2.2c-1.2,1.2-3.4,1.7-3.6,4c-0.3,0.4-0.7-0.4-1-0.6c0.2-0.3,0.5-0.4,0.5-0.7c-0.7,0.8-2.5,1.2-2.2,2.6
						c-1.3-0.3,0.2-1.5-1.3-0.8l0.1-0.5c-1.8-0.6-2.7,0.6-3.7,1.9c-1,1.2-2.1,2.3-4.2,1.3c0.3,0.1,0.4,0.2,0.5,0.4
						c-1-0.1-2,0.1-3,0.4c-1,0.2-1.9,0.6-2.9,0.9c-1,0.3-1.9,0.7-2.9,0.8c-1,0.1-2,0.1-3.1-0.3c-1.2-0.2-1.1,0.7-1.7,1.6l-0.4-1.2
						l-0.9,1.5c-1.5,1.2-3.2-2.5-5-0.3l0.4,0.8c-0.8-0.1-2.3,0.7-2.3-0.2c-0.1,0.2-0.2,0.9-0.5,0.5l-0.1-0.6c0,0-0.4,0.3-0.9,0.6
						c-0.4,0.3-0.9,0.6-0.9,0.6c-1.5-0.3,0-2.5-2-2.5c-0.7,0.3-2.1,2-1.7,2.4c0.3,0,0.8,0.3,0.9,1l-0.7,0.4c0,1.9-0.5,3.8,1.4,5
						l1.2-1.2l0.5,0.9l-1.1,0.1c0.7,0.8,1,0,1.4-0.5c0.1,0.5,0.3,0.8,0.6,1l1.1-1.9c0.2,0.7-0.4,1.5,0.5,1.8
						c0.5-0.9-0.7-1.6,0.2-2.2c0.7,0.8,0.6,1.5,1.2,0.7c0.2,0.5,0,0.8-0.2,1c0.6-0.6,1.6-0.4,1.8-1.4c0.8,1,2.1-0.5,2.2,1.2
						c0.1-0.4,0.9-1.5,1.5-1.7c-0.7,2.2,2.2-0.2,2.2,2.1c0.5-2,2.7-1.3,3.8-2.6c0,0.2-0.1,0.5-0.3,0.4c0.8,0,1.1,0.5,1.7,0.8
						c-0.2-1.6,0.9-2.1,1.3-3.2c1.2,1.3-0.2,1.9,0.4,3.3c-0.3-1.2,1.4-1.6,0.8-2.6c0.9,0.7,0.7,0.3,1.4,1.5
						c-0.3-1.9,0.6-0.5,0.9-1.8c1.3,0.7,0.7,1.7,1.7,0.9C25.8,201.5,25,202.4,25,202.4z M50,190.2C50,190.3,50,190.3,50,190.2
						c-0.2,0.1-0.4,0.2-0.5,0.3C49.6,190.5,49.8,190.4,50,190.2z M52.1,189.3c-0.3,0.1-0.6,0.2-0.9,0.4c-0.2-0.3-0.3-0.7-0.1-0.8
						C51.1,189.1,51.7,189.1,52.1,189.3z M44.6,184.1c0.3-0.3,0.5-0.1,0.6,0.1c-0.1,0.1-0.3,0.2-0.5,0.4c0,0,0,0.1,0,0.1
						C44.6,184.4,44.6,184.2,44.6,184.1z"/>
					<path id="XMLID_227_" class="st0" d="M44.6,185.7c0,0,0,0.1-0.1,0.1c0.1,0.1,0.2,0.1,0.3,0.2c0-0.1,0-0.3,0-0.4
						C44.7,185.6,44.7,185.6,44.6,185.7z"/>
					<path id="XMLID_226_" class="st0" d="M179.9,40.1L179.9,40.1c0,0,0.1,0,0.1,0C180,40.1,179.9,40.1,179.9,40.1z"/>
					<polygon id="XMLID_225_" class="st0" points="80.8,175.3 80.6,175 80.6,175.4 					"/>
					<path id="XMLID_224_" class="st0" d="M188.8,30.6c0.1,0,0.2,0,0.3,0C189.1,30.6,189,30.6,188.8,30.6z"/>
					<path id="XMLID_223_" class="st0" d="M191.4,25.8l0.7-0.5C191.7,25.5,191.5,25.7,191.4,25.8z"/>
					<path id="XMLID_222_" class="st0" d="M193.6,22.3c-0.2-0.1-0.3-0.2-0.4-0.3l0,0L193.6,22.3z"/>
					<path id="XMLID_221_" class="st0" d="M163.9,81.3c0,0.1,0,0.1,0,0.2C163.8,81.9,163.9,81.7,163.9,81.3z"/>
					<path id="XMLID_220_" class="st0" d="M171.6,63c0.1,0.3,0.2,0.6,0.2,0.8C172,63.6,172.1,63.4,171.6,63z"/>
					<path id="XMLID_219_" class="st0" d="M153,100.6C153,100.6,153,100.6,153,100.6C152.9,100.6,152.9,100.6,153,100.6L153,100.6z"
						/>
					<path id="XMLID_218_" class="st0" d="M171.3,64.6c0.4-0.2,0.5-0.5,0.5-0.8C171.5,64.1,171.2,64.3,171.3,64.6z"/>
					<path id="XMLID_217_" class="st0" d="M201.3,6l0.1-0.2c-0.1,0-0.1-0.1-0.2-0.1L201.3,6z"/>
					<path id="XMLID_216_" class="st0" d="M201.2,5.8l0-0.3C201.2,5.6,201.1,5.7,201.2,5.8z"/>
					<path id="XMLID_215_" class="st0" d="M201.1,5l0.1,0.5C201.3,5.4,201.4,5.2,201.1,5z"/>
					<path id="XMLID_214_" class="st0" d="M198.6,10.9l0.3,0.2C198.9,11,198.8,11,198.6,10.9z"/>
					<path id="XMLID_213_" class="st0" d="M198.1,12.5c0.2-0.3,1.2-0.6,1.2-1.2l-0.3-0.2C199.4,11.6,197.6,11.8,198.1,12.5z"/>
					<path id="XMLID_212_" class="st0" d="M190.7,16.8l0.9-1.1c-0.5,0-1.2,0.1-1-0.5C188.6,16.2,191.6,15.2,190.7,16.8z"/>
					<path id="XMLID_211_" class="st0" d="M188.3,20.4c0.1-0.8-0.6-0.3-0.8-0.4C187.7,20.6,187.7,20.8,188.3,20.4z"/>
					<path id="XMLID_210_" class="st0" d="M174.7,48.3l-0.9-0.5C173.7,48.4,174.1,48,174.7,48.3z"/>
					<polygon id="XMLID_209_" class="st0" points="176.6,56.1 177.4,55.9 176.7,55.2 					"/>
					<polygon id="XMLID_208_" class="st0" points="168.5,55.7 168.5,55.4 168.3,56.4 					"/>
					<path id="XMLID_207_" class="st0" d="M141.4,99.9l1.1,0.6C142.6,100,141.4,99.1,141.4,99.9z"/>
					<path id="XMLID_206_" class="st0" d="M128.9,118.5c-0.6-0.2-1.4,0-1.1,0.7C128.2,118.9,128.9,118.8,128.9,118.5z"/>
					<polygon id="XMLID_205_" class="st0" points="79.8,163.5 79.9,163 79.4,163.7 					"/>
				</g>
			</g>
		</g>
	</g>
</g>
<g id="XMLID_128_">
	<g id="XMLID_71_">
		<g id="XMLID_75_">
			<g id="XMLID_76_">
				<g id="XMLID_77_">
					<path id="XMLID_197_" class="st0" d="M195.3,39.2c0.3,0,0.8,0.1,0.7,0l-1-0.1L195.3,39.2z"/>
					<path id="XMLID_196_" class="st0" d="M197.1,38.9c-0.5-0.1-1.3-0.2-2.2-0.3c0.9,0.1,0.5,0.1,1.7,0.3c0.1,0.1-0.3,0.1-0.7,0
						c0.3,0-0.2,0.1,0.4,0.1c0.8,0,0.8-0.1,0.2-0.3C196.7,38.9,196.9,38.9,197.1,38.9z"/>
					<path id="XMLID_195_" class="st0" d="M199.1,33.5l-0.1,0C199,33.5,199,33.5,199.1,33.5z"/>
					<path id="XMLID_194_" class="st0" d="M199.8,30.1c0,0,0.1,0,0.2,0.1C200,30.1,199.9,30.1,199.8,30.1z"/>
					<path id="XMLID_144_" class="st0" d="M201,29.5C200.9,29.6,200.9,29.6,201,29.5C201,29.6,201,29.6,201,29.5z"/>
					<path id="XMLID_127_" class="st0" d="M199.1,33.5l0.3-0.1C199,33.4,199.1,33.4,199.1,33.5z"/>
					<path id="XMLID_126_" class="st0" d="M194.8,38c0,0,0.1,0,0.3,0.1c0,0-0.1,0-0.1-0.1C194.9,38,194.8,38,194.8,38z"/>
					<path id="XMLID_125_" class="st0" d="M199.7,35.1L199.7,35.1c0.1,0,0.2,0.1,0.4,0.1L199.7,35.1z"/>
					<path id="XMLID_124_" class="st0" d="M199.8,36.2c0,0-0.8-0.1-1.2-0.1c0.3,0,0.5,0.1,0.6,0.1C199.4,36.2,199.6,36.2,199.8,36.2
						z"/>
					<path id="XMLID_123_" class="st0" d="M198.2,38l0.1,0C198.3,38,198.3,38,198.2,38z"/>
					<path id="XMLID_122_" class="st0" d="M200,34.2c0.1,0,0.2,0,0.3,0C200.2,34.2,200.1,34.2,200,34.2z"/>
					<path id="XMLID_121_" class="st0" d="M196,1.1c0.1,0,0.1,0,0.1,0C196,1.1,196,1.1,196,1.1z"/>
					<path id="XMLID_120_" class="st0" d="M200.2,0L200.2,0c0.2,0,0.4,0,0.5,0.1L200.2,0z"/>
					<path id="XMLID_119_" class="st0" d="M202.1,28.5C202.1,28.5,202.1,28.5,202.1,28.5C202.2,28.6,202.2,28.6,202.1,28.5z"/>
					<path id="XMLID_118_" class="st0" d="M202.2,18.6c-0.8,0.1-1-0.3-1.8-0.1C200.7,18.4,201.7,18.7,202.2,18.6z"/>
					<path id="XMLID_117_" class="st0" d="M194.9,38C194.9,38,194.9,38,194.9,38C194.9,38,194.9,38,194.9,38z"/>
					<path id="XMLID_116_" class="st0" d="M200.4,18.4C200.4,18.4,200.4,18.4,200.4,18.4L200.4,18.4
						C200.3,18.4,200.4,18.4,200.4,18.4z"/>
					<path id="XMLID_115_" class="st0" d="M201.8,26c-0.1,0-0.3,0-0.4,0C201.5,26,201.6,26,201.8,26z"/>
					<path id="XMLID_114_" class="st0" d="M200.5,27.8l0.1,0C200.5,27.8,200.5,27.8,200.5,27.8z"/>
					<path id="XMLID_113_" class="st0" d="M200.7,25C200.7,24.9,200.9,24.9,200.7,25C200.7,24.9,200.7,24.9,200.7,25
						C200.8,24.9,200.8,25,200.7,25z"/>
					<path id="XMLID_112_" class="st0" d="M200.7,24c-0.1,0-0.1,0-0.2,0c0,0,0,0,0,0L200.7,24z"/>
					<path id="XMLID_111_" class="st0" d="M196.1,4.2c0.2,0,0.5,0,0.8,0C196.3,4.1,196.1,4,196.1,4.2z"/>
					<path id="XMLID_110_" class="st0" d="M195.3,38c-0.2,0-0.3,0-0.4-0.1c0,0,0,0,0,0C195.1,38,195.2,38,195.3,38z"/>
					<path id="XMLID_109_" class="st0" d="M194,24.5l0.1-0.2C194.1,24.4,194,24.4,194,24.5z"/>
					<path id="XMLID_108_" class="st0" d="M195.8,11.4L195.8,11.4C195.6,11.3,195.7,11.3,195.8,11.4z"/>
					<path id="XMLID_107_" class="st0" d="M194.1,23.8c0.3,0,0.5,0,0.6,0c-0.1,0-0.1,0-0.2,0L194.1,23.8z"/>
					<path id="XMLID_106_" class="st0" d="M196.9,4.2C196.9,4.2,196.9,4.2,196.9,4.2C196.9,4.2,196.9,4.2,196.9,4.2z"/>
					<path id="XMLID_101_" class="st0" d="M195,3c0,0.2,1.1,0.1,1.7,0.2c0.3,0.2-0.8,0-1.4,0c0.3,0.1,1.3,0.3,1.2,0.4
						c-0.2,0-0.2,0-0.5,0c0.9,0.2,0,0.4,1.1,0.6c-0.1,0-0.2,0-0.3,0c0.6,0,1.1,0.1,1.5,0.1c0,0.1,0.7,0.2,0,0.2c0,0-0.3-0.1-0.5-0.1
						l0.3,0.1c-1,0-0.4-0.1-1.1-0.2c0.3,0.2,1.2,0.4,0.9,0.5c-1,0-0.3-0.3-1.2-0.2l0.4-0.1c-1.6,0,0.1-0.1-1.6-0.1
						c-0.3,0.2,0.5,0.3,0.2,0.5c0.6,0.1,0.8,0,1.4,0.1c1,0.4-2.6,0.1-1.2,0.4c0.7,0.1,2,0.2,1.3,0.3L196,5.4
						c-0.1,0.2,1.6,0.2,0.9,0.4c-0.4-0.1-0.4-0.2-0.5-0.2c-0.9,0.1,0.6,0.1,0.6,0.3l-1,0c0.1,0.2,0.9,0.5,1,0.8
						c-0.3,0-0.6-0.1-0.9-0.1c0.5,0.3-0.2,0.7-0.8,0.9l0.9,0.2c0,0-0.4,0-0.6,0c-0.3,0.1,0.6,0,0.9,0.1c0.1,0.1-0.5,0.1-0.8,0
						c0.7,0.3,1.6,0.7,0.6,0.9L196,8.6c-0.4,0.1,1.8,0.3,1,0.4l-0.2,0c-0.4,0.3,0.4,0.8-1,1c1.3,0.1-0.6,0.3,1.2,0.5
						c-0.9,0.1-1.2,0.1-1.8,0.3c-0.1,0.1,1.1,0.2,1.3,0.3l-0.9-0.1l1,0.2l-1.1,0l0.2,0.1c0.1,0,0.4,0,0.7,0c0.4,0.2-0.7,0.3-1.1,0.3
						L196,12c-0.4,0-0.5-0.1-0.7-0.2c0.9,0.2-1,0-0.1,0.2c0.2,0,0.5,0.1,0.7,0.1c-0.6,0-0.6,0.2-0.4,0.4l-0.6-0.1
						c-0.2,0.2,0.3,0.6,0.2,0.8c0.3-0.1,1.4,0,1.5,0.1l-1,0c0.6,0.1,0.4-0.1,1.1,0.1c-0.1,0.1-1.1,0-1.4-0.1l0.3,0.2
						c-0.3,0-0.4-0.1-0.8-0.1c0.6,0.1-1,0.2,0.1,0.3l-0.3,0c0,0.3,0.3,0.4,0.3,0.7c0.8,0.1,0.6,0.1,1.3,0.3c-0.3,0.2-1,0.3-0.9,0.5
						c0.4,0.2,0.7,0.1,1.2,0.2c-0.8,0-0.7,0.2-1.3,0c0.1,0.3,0.1,0.3,0.7,0.7c0.3,0,0.5,0,0.7,0c0.1,0.1-0.3,0.1-0.7,0.1l-0.1,0
						c1.1,0.4-2.3,0.6-0.7,1l-0.1,0l0.8,0.3c-0.1,0.1-0.6-0.1-1.1-0.1c1.3,0.4-0.2,0.5,0.6,0.8c-2.3,0,0.1,0.7-1.4,0.9l0.5,0
						c0.5,0.1-0.3,0.1-0.4,0.1c0.4,0,0.5,0,0.8,0c0.6,0.6-0.9,1.1-1.4,1.7c-0.2,0.2,2.7,0.3,1.5,0.5l-1-0.1c1.2,0.5-0.1,0.9,0.9,1.4
						c-0.2,0-0.5-0.1-0.5-0.1c-0.7,0-0.1,0.3,0.5,0.4c-0.1,0.1-0.5,0-0.8,0c-0.4,0.1,0.9,0.3,0.2,0.3c-0.1,0-0.2,0-0.3-0.1
						c0.3,0.1-0.1,0.3,0.7,0.3c-0.4,0.1,0.3,0.3-0.2,0.4c0.9,0.1-0.5,0.2,0.8,0.4c-1.4-0.1-1.1,0.2-0.5,0.4c-0.4-0.1-0.4,0.1-1,0
						c0,0.1,0.3,0.2,1,0.3c-1.6,0.1,1.3,0.5-0.8,0.5c0.7,0.4,1.2,0.8,1.5,1.1c-1.3-0.1-0.1-0.4-1.5-0.4c0.5,0.3,1.7,0.6,1.3,0.9
						c-0.2,0.1-0.6-0.1-0.8-0.1c0.5,0.3-0.2,0.6,0.6,0.9c-0.1,0-0.3,0-0.4-0.1c0,0.1-0.2,0.1,0.4,0.1l-0.2-0.1
						c0.9,0,1.8,0.3,2.3,0.4c-1.8-0.2-0.5,0.2-2.7-0.1c0.1,0,0.4,0.1,0.8,0.1c-0.1,0-0.4,0-0.8,0c0.3,0.2,1,0.2,1,0.4
						c-0.3,0-0.4-0.1-0.8-0.1c0.6,0.1,1.1,0.3,0.9,0.4c-0.2,0-0.4,0-0.4-0.1c0.1,0.3,1.5,0.5,0.9,0.8c-1.3-0.2-0.4,0.1-1.5,0
						l0.3,0.2l0.5,0c0,0.1,0.8,0.3,0.4,0.4l-0.5-0.1l0.2,0.3l0.4-0.1c0.6,0.2,1.4,0.1,1.1,0.2c-0.1,0,0,0.1-0.7,0.1c0,0,0,0,0,0
						c0.4,0.1,0.7,0.2,0.4,0.3c-0.4,0-1.2-0.1-1.5-0.1c0.9,0.1,0.2,0.3,1.2,0.5c-0.2,0-0.8-0.1-0.9-0.1l0.8,0.1c-0.2,0-0.4,0-0.8,0
						c-0.2,0.2,1.4,0,0.8,0.2c-0.1,0-0.2,0-0.3-0.1c-0.3,0.2,0.5,0.4,0.1,0.6c-1.1,0-0.3-0.2-1.2-0.2c0.2,0.3,1.3,0.7,1,0.9l0.1,0
						c1.6,0.1-0.8,0.1-0.1,0.3c-0.1,0-0.9-0.1-0.7-0.1c-0.3,0.2,0.4,0.4,0.8,0.7l-0.4-0.1c-0.4,0.1-0.2,0.3-0.4,0.4
						c0.4,0.1,0.3,0.1,0.9,0.1c-2.3,0.2,1.2,0.8-0.8,1c0,0-0.4-0.1-0.4-0.1l0.4,0.3c0.7,0,0.4,0,1,0c0.4,0.1,0.7,0.2,0.7,0.2
						c-0.4-0.2-1.1-0.1-1.5-0.1c0.2,0,0.4,0,0.7,0.1c-1.2,0.1,1.4,0.1,0.5,0.3l-0.4,0c0.2,0.1,0.7,0.2,0.5,0.3c-0.8,0-0.4-0.1-1-0.2
						c0,0.1,1.5,0.3,0.7,0.4c-0.2-0.1-0.2-0.1-0.4-0.2c-0.9,0-0.7,0.1-0.9,0.1l0,0l-0.4,0.2l0.3,0c2.1,0.3,0.4,0.3,1.7,0.6
						c-1.3-0.3-0.7-0.1-1.7-0.2c-0.3,0-0.5,0.1-0.8,0c0.7,0.1-0.6,0.1,0.5,0.3c-0.3,0,0,0.1-0.8,0c0.2,0.1,0.5,0,0.9,0
						c1,0.2-1.2,0.3,0.1,0.7c0.5,0.3,1.5,0.4,2,0.6c-0.5,0-1.1-0.1-1.1-0.1c-0.4,0.1-0.4,0.2,0,0.3c-0.3,0-0.5,0-0.8,0
						c0.1,0.1,1.1,0.1,0.6,0.2c-0.3,0-0.8-0.1-1.2-0.2c0.3,0.1,0.8,0.3,1.1,0.4c-0.5,0-0.8-0.1-1.1-0.2c0.2,0.1,0.4,0.3,1.2,0.4
						l0.3-0.1c0,0-0.7,0-0.8-0.1c-0.6-0.1,0.3-0.1,0.6-0.1l0.2,0.1c1.7,0-0.3-0.3-0.1-0.5l1.2,0.1l-1-0.2c0.3,0,1,0,1.2,0.1
						c0.6-0.1-0.4-0.1,0.3-0.2c0.1,0,0.2,0,0.2,0l-0.4-0.1c0.3,0,0.9,0,0.7,0.1c0.7-0.1-0.9-0.4,0-0.4l0.1,0c-0.4-0.3-0.9-0.1-2-0.4
						l2.3,0l-0.9-0.1c0,0,0.1-0.1,0.5,0c-0.6-0.1-0.4,0-1-0.1c0.8-0.1-0.4-0.4,1.1-0.3c-0.7-0.1-0.5,0.1-1-0.1
						c1.6,0.1-0.3-0.2,0.5-0.2c0.8,0.1,0.4,0.2,1.1,0.1c-1.4-0.2,0.3-0.2,0.1-0.3c-1.1-0.1-0.4-0.2-0.8-0.4c0.4,0,0.6-0.3,1-0.4
						l0.2,0c-1.1-0.1-0.9-0.2-1.1-0.4c0.7,0.1,0.9,0.1,1.2,0.2l0-0.1c-0.4-0.1-0.5-0.1-0.7-0.2l0.8,0.1c0-0.1-0.9-0.4-0.4-0.5
						c-0.8-0.1-2.1,0-2.6-0.2c0.4,0,1.1,0.1,1.3,0.1c-0.1,0-0.3-0.1-0.2-0.1l0.7,0.1c0.3-0.1-0.6-0.1-0.5-0.1c0.6,0,0.4,0,0.9,0
						c0.1,0-0.2,0,0,0.1c0.1-0.1,0.5-0.1,0.9-0.1c-0.3,0-0.8-0.1-0.9-0.1c0-0.1,0.7,0,1-0.1c-0.4-0.1,0-0.1-0.9-0.2c0,0,0.4,0,0.7,0
						c-0.4-0.1-0.1-0.4-1-0.3l-0.1,0c0,0,0,0,0,0c0,0,0,0,0,0l0,0c-0.9-0.3,0.5-0.5,0.2-0.7l0.3,0c-0.3-0.2-0.2-0.3-0.8-0.5
						c0,0,0.5-0.1,0.9,0c-0.2-0.1-0.5-0.2,0-0.3c0.5,0.1,0.5,0,0.4,0.1c0.3-0.1,0.7-0.1-0.1-0.3c0.8,0.1,1,0,0.7-0.1l-0.5,0.1
						c-0.1-0.1,0-0.1,0-0.2l1,0.1c1.2-0.2-2-0.7,0-0.8c-0.7-0.1-0.5,0.1-1.3,0c0.1-0.1,1.6-0.2,1.6-0.2c0.6-0.1-1.4-0.3-1.1-0.4
						c-0.4,0-1.3,0-1.6-0.2c0.1-0.1,1.5-0.1,1.8,0c0,0-0.1,0-0.2,0c0.1,0.1,0.3,0.1,0.7,0.1l-0.4,0c0.4,0,0.3-0.2,0.9-0.1
						c-0.3-0.1-0.6-0.1-0.8,0c0.5-0.1,0-0.3,0.4-0.4c-0.2,0-0.6,0-0.6,0c0.5-0.2-0.7-0.2-0.8-0.3c0.5-0.1,1.3,0.1,0.8-0.1
						c0.4-0.1,0.9,0,1.2,0.1c-0.7-0.2,0.5-0.3,0.6-0.4l0.3,0.1c-0.2-0.1-0.2-0.1-0.2-0.1l-0.7,0c0.1,0,0.1-0.1,0.4-0.1
						c-0.5-0.1-1.2,0-1.8-0.2c0.4,0-0.4-0.2,0.6-0.2c-0.3,0.2,0.9,0,1.1,0.2c-0.1,0-0.1-0.1,0-0.1c0.1,0,0.2,0,0.2,0
						c0.9-0.1-1.1-0.2-1-0.4c0.5,0.1,1,0,0.9,0c0,0.1-0.9,0-1.3-0.1c0.4-0.1-0.3-0.2-0.2-0.2l-0.2,0.1c-0.5-0.1-0.5-0.1-0.6-0.2
						c0.4,0,0.3,0.1,0.5,0.1c-0.9-0.2,1-0.2,0.4-0.4c0.4,0,1,0.1,1.2,0c-0.7-0.2,0.7-0.1,0.2-0.3c-0.7,0-0.5,0-1.2-0.1l0.5,0.3
						l-1-0.3c0,0.1,0.4,0.2,0.3,0.3c-0.6-0.1-0.4-0.1-1-0.1c1.1,0-0.6-0.3,0.1-0.4l1.8,0.1c0.8-0.1-0.9-0.4-0.4-0.6l-0.3,0.1
						c-0.7-0.1-0.1-0.2-0.4-0.3c0.6,0,0.8,0,1.2,0c-0.4,0,0.1-0.2-1.1-0.3l0.8-0.1c0.3-0.2-1.7-0.4-1.5-0.5c0.6,0.1,1.1,0,1.5,0.2
						c0-0.1,0.1-0.1-0.3-0.1c0.4,0-0.8-0.2-0.2-0.3c-0.3,0-0.9-0.1-0.8-0.2c0.1,0,0.3,0,0.3,0c-0.3,0-0.4-0.1-1-0.1
						c1.9-0.1-0.1-0.6,1.5-0.7c-0.2-0.2-0.4-0.4-0.4-0.5c0.2,0,0.3,0,0.2,0c0.6-0.1-1.7-0.2-1.1-0.4c1,0,0.5,0.1,0.9,0.1
						c1.9,0.1-0.2-0.3,0.9-0.3l0.1,0c0.7-0.1-0.7-0.3-0.6-0.5c0,0,0.2,0,0.3,0c-1-0.2-1.3-0.4-1.6-0.6c0.8,0.1,0.4,0.1,1.2,0.1
						c-0.1-0.1-1.2-0.1-1.4-0.2c0.4,0,0.8-0.1,1.6-0.1l0,0.1c1.1,0,0-0.2,0.2-0.3l0.5,0c-0.1-0.2-1.3-0.3-1.2-0.5l-0.4,0
						c-1.2-0.2,0.7-0.1-0.2-0.3l1.2,0c-0.3-0.1-1.1-0.4-1.3-0.5c0.9,0.1,1.3,0.4,1.8,0.5c0-0.1-0.1-0.3-0.6-0.4
						c0.1,0,0.4,0.1,0.2,0.1c-0.9-0.2-1.4-0.3-1.3-0.5c2.3,0.2,0.6-0.4,2.4-0.4c-0.8-0.4,0.4-0.6,0.3-0.9c-1.8,0,0-0.1-1.9-0.2
						c-0.1-0.1-0.1-0.1,0-0.1l1.1-0.2c0.5,0,0.4,0.1,0.8,0.1c0.2-0.2,0.8,0,1.3-0.1c-0.7,0-0.9-0.1-0.7-0.2l-0.9,0.1
						c-1-0.3,1.6-0.1,0.6-0.4l0.6,0.1c-0.3-0.2,0-0.5-1.4-0.7c0.2,0,0.7,0,0.8,0.1c0.2-0.3-1.5-0.8-0.6-1l0.4,0.1
						c-0.1-0.1-0.8-0.2-0.4-0.2c0.2,0,0.4,0.1,0.5,0c-0.2,0-0.8-0.2-0.5-0.3l0.5,0.1c0.6-0.3-1.2-0.5-1.5-0.8c1.3,0.1,1.8-0.1,2-0.2
						l0.2,0c0.2-0.3-1.1-0.7-1.5-1c1.4-0.1,0.6-0.6,1.5-0.9c-0.2,0-1-0.1-1.2-0.1c0.3-0.1-0.9-0.3,0.3-0.2l0,0
						c1.2,0,0.9-0.1,0.9-0.3l-1.6-0.1c2.3-0.2-0.8-0.9,1.3-0.9c-0.4-0.1-0.4-0.2-0.8-0.3l0.8,0.1c0.2-0.2,0.3-0.3,0.2-0.6l0.6,0.1
						c0.1-0.1-2.4-0.4-2.5-0.5l1.3,0c0-0.3,1.1-0.4,0-0.8c0.2,0,0.6,0.1,0.6,0.1c0-0.1,0.9-0.4-0.9-0.5c1.1,0.1,0.1-0.3-0.4-0.4
						l0.8,0.1c-1.1-0.2-1.3-0.2-1.6-0.4c0.1,0,0.7,0,0.5,0c0.4-0.1-0.8-0.2-0.3-0.3l0.5,0.1c0.1-0.1-0.2-0.1-0.8-0.3
						c-0.3-0.1,0.2-0.2,1-0.2c-0.5-0.1-1.1-0.2-0.8-0.2c0.3,0,0.5,0.1,0.5,0.1c0.6-0.2-0.9-0.4-0.1-0.5c0.3,0,0.4,0,0.5,0
						c0,0.2-0.1,0.3-0.1,0.3c0.8,0.1,0.9-0.1,2,0.1c-0.6-0.2-1.8-0.4-1.4-0.6c0.1,0,0.1,0,0.3,0l0.1,0c0.1,0,0-0.1-0.1-0.1
						c0.1,0,0.2-0.1,0.2-0.1c0.6,0,0.4-0.1,0.4-0.2c-0.8-0.1-0.7-0.1-1.4-0.1c0.1,0,0.1,0,0.1,0.1c0,0,0,0,0.1,0c0,0,0,0-0.1,0
						c0,0,0,0.1,0,0.2c-0.4-0.1-0.8-0.2-0.3-0.2c-0.5-0.1-1.1-0.2-1.4-0.2c1.2,0,1.8-0.2,2.6-0.1c-0.5-0.2-0.3-0.5-1.8-0.8
						c-0.2-0.1,0.5,0,0.7,0c0.2,0,0.1,0.1,0.4,0.1c-0.4-0.2-0.1-0.4-1.2-0.5c0.5-0.1,1,0.2,0.8-0.1l0.3,0.1c1.8-0.3-2.8-0.9-0.5-1.2
						c-0.1,0-0.2,0-0.4,0c1-0.5-0.9-1.2,0.8-1.6c0.3-0.1-0.4-0.2-0.9-0.3l0.9,0l-1-0.2c-0.7-0.3,2.2-0.2,0.8-0.6l-0.6,0
						c0.1-0.1-0.3-0.3,0.4-0.3c-0.1,0-0.6-0.1-0.3-0.1l0.5,0L201,0.6c0.4-0.2,1.9,0.2,2-0.1c-0.2-0.1-1.4-0.4-1.7-0.4
						c0,0-0.3,0.1-0.8,0.1L200.3,0c-1.4-0.1-2.8-0.3-3.8-0.1l0.8,0.2l-0.7,0l0-0.1c-0.6,0-0.1,0.1,0.3,0.2c-0.4,0-0.6,0-0.7,0
						l1.3,0.3c-0.5,0-1.1-0.1-1.4-0.1c0.6,0.1,1.2,0,1.6,0.2c-0.6,0-1.2,0-0.6,0.1c-0.4,0-0.6,0-0.7-0.1c0.4,0.1,0.2,0.2,0.9,0.3
						c-0.8,0,0.2,0.3-1.1,0.2c0.3,0,1,0.2,1.1,0.3c-1.6-0.2-0.1,0.3-1.8,0.1c1.4,0.2,0.6,0.4,1.4,0.6c-0.1,0-0.3-0.1-0.3-0.1
						c-0.1,0.1-0.6,0.1-0.8,0.1c1.2,0.1,1.4,0.3,2.1,0.4c-1.1,0-1.4-0.2-2.5-0.2c1,0.1,0.9,0.3,1.7,0.3c-0.7,0-0.3,0.1-1.3,0
						c1.5,0.1,0.2,0.1,1.1,0.2c-0.7,0.1-1.4-0.1-0.9,0.1C195.5,3.1,195,3,195,3z M197.3,6.7C197.3,6.7,197.3,6.7,197.3,6.7
						C197.2,6.7,197.2,6.6,197.3,6.7C197.2,6.6,197.2,6.7,197.3,6.7z M197.3,7c0,0,0-0.1,0-0.1c0.3,0,0.6,0,0.6,0.1
						C197.7,6.9,197.5,7,197.3,7z M203.1,6.8c0.1,0.1-0.1,0.1-0.2,0.1c0,0,0-0.1-0.1-0.1c0,0-0.1,0-0.1,0
						C202.9,6.7,203,6.8,203.1,6.8z"/>
					<path id="XMLID_100_" class="st0" d="M202,6.6C202,6.6,202,6.6,202,6.6c-0.1,0-0.2,0-0.3,0C201.9,6.6,202,6.6,202,6.6
						C202.1,6.6,202.1,6.6,202,6.6z"/>
					<path id="XMLID_99_" class="st0" d="M198.9,33.5L198.9,33.5c0,0,0,0-0.1,0C198.9,33.5,198.9,33.5,198.9,33.5z"/>
					<polygon id="XMLID_98_" class="st0" points="195.4,11 195.6,11 195.4,11 					"/>
					<path id="XMLID_97_" class="st0" d="M195.9,34.9c-0.1,0-0.2,0-0.2,0C195.7,35,195.8,35,195.9,34.9z"/>
					<path id="XMLID_96_" class="st0" d="M195.7,35.6l-0.3,0.1C195.5,35.7,195.6,35.7,195.7,35.6z"/>
					<path id="XMLID_95_" class="st0" d="M195.2,36.2c0.1,0,0.3,0,0.4,0c0,0,0,0,0,0L195.2,36.2z"/>
					<path id="XMLID_94_" class="st0" d="M194.8,27.4C194.8,27.4,194.8,27.4,194.8,27.4C194.6,27.3,194.7,27.4,194.8,27.4z"/>
					<path id="XMLID_93_" class="st0" d="M196.6,30.1c-0.2,0-0.3-0.1-0.4-0.1C196.2,30.1,196.1,30.1,196.6,30.1z"/>
					<path id="XMLID_92_" class="st0" d="M194,24.5C194,24.5,194,24.5,194,24.5C194,24.5,194,24.5,194,24.5L194,24.5z"/>
					<path id="XMLID_91_" class="st0" d="M196.3,29.9c-0.2,0-0.1,0.1,0,0.1C196.3,30,196.4,30,196.3,29.9z"/>
					<path id="XMLID_90_" class="st0" d="M194.7,38.5L194.7,38.5C194.7,38.5,194.7,38.5,194.7,38.5L194.7,38.5z"/>
					<path id="XMLID_89_" class="st0" d="M194.8,38.5L194.8,38.5C194.9,38.6,194.9,38.5,194.8,38.5z"/>
					<path id="XMLID_88_" class="st0" d="M195.1,38.6l-0.2-0.1C194.9,38.6,194.8,38.6,195.1,38.6z"/>
					<path id="XMLID_87_" class="st0" d="M195.1,37.8l-0.3,0C194.9,37.8,195,37.8,195.1,37.8z"/>
					<path id="XMLID_86_" class="st0" d="M195,37.6c-0.1,0-0.7,0.1-0.5,0.2l0.2,0C194.4,37.7,195.5,37.7,195,37.6z"/>
					<path id="XMLID_85_" class="st0" d="M198.9,36.9l-0.3,0.2c0.3,0,0.8,0,0.8,0.1C200.4,37,198.7,37.2,198.9,36.9z"/>
					<path id="XMLID_84_" class="st0" d="M199.4,36.4c0.1,0.1,0.5,0,0.7,0C199.7,36.4,199.7,36.3,199.4,36.4z"/>
					<path id="XMLID_83_" class="st0" d="M199.7,32.3l0.8,0.1C200.3,32.3,200.1,32.3,199.7,32.3z"/>
					<polygon id="XMLID_82_" class="st0" points="195.8,31.2 195.3,31.3 196,31.3 					"/>
					<polygon id="XMLID_81_" class="st0" points="201.3,31.1 201.4,31.2 201.1,31 					"/>
					<path id="XMLID_80_" class="st0" d="M201.5,24.2l-0.9,0C200.7,24.2,201.7,24.3,201.5,24.2z"/>
					<path id="XMLID_79_" class="st0" d="M200.7,21.1c0.5,0,0.8-0.1,0.3-0.1C201,21.1,200.6,21.1,200.7,21.1z"/>
					<polygon id="XMLID_78_" class="st0" points="202.9,12.3 203.2,12.4 202.9,12.3 					"/>
				</g>
			</g>
		</g>
	</g>
</g>
<g id="XMLID_193_">
	<g id="XMLID_130_">
		<g id="XMLID_134_">
			<g id="XMLID_135_">
				<g id="XMLID_136_">
					<path id="XMLID_192_" class="st0" d="M171.9,27.5c0.2,0.2,0.6,0.6,0.6,0.5l-0.7-0.7L171.9,27.5z"/>
					<path id="XMLID_191_" class="st0" d="M173.5,28.4c-0.3-0.4-0.9-1-1.6-1.6c0.7,0.7,0.4,0.4,1.1,1.3c0,0.1-0.3-0.1-0.6-0.4
						c0.2,0.2-0.2-0.1,0.2,0.4c0.6,0.5,0.7,0.4,0.3-0.1C173.2,28.1,173.4,28.3,173.5,28.4z"/>
					<path id="XMLID_190_" class="st0" d="M178.4,25.4l-0.1-0.1C178.4,25.4,178.4,25.4,178.4,25.4z"/>
					<path id="XMLID_189_" class="st0" d="M181.2,23.2c0,0,0.1,0.1,0.1,0.2C181.3,23.3,181.2,23.3,181.2,23.2z"/>
					<path id="XMLID_188_" class="st0" d="M182.4,23.5C182.3,23.5,182.3,23.5,182.4,23.5C182.4,23.6,182.4,23.6,182.4,23.5z"/>
					<path id="XMLID_187_" class="st0" d="M178.4,25.4l0.3,0.1C178.5,25.3,178.5,25.4,178.4,25.4z"/>
					<path id="XMLID_186_" class="st0" d="M172.3,26.2c0,0,0.1,0.1,0.2,0.2c0,0,0-0.1,0-0.1C172.4,26.3,172.3,26.3,172.3,26.2z"/>
					<path id="XMLID_185_" class="st0" d="M178,27L178,27c0.1,0.1,0.2,0.2,0.3,0.3L178,27z"/>
					<path id="XMLID_184_" class="st0" d="M177.3,28c0,0-0.6-0.6-0.8-0.8c0.2,0.2,0.4,0.4,0.4,0.4C177,27.7,177.1,27.8,177.3,28z"/>
					<path id="XMLID_183_" class="st0" d="M175,28.4l0.1,0.1C175,28.4,175,28.4,175,28.4z"/>
					<path id="XMLID_182_" class="st0" d="M178.7,26.6c0.1,0.1,0.2,0.2,0.2,0.2C178.8,26.7,178.8,26.6,178.7,26.6z"/>
					<path id="XMLID_181_" class="st0" d="M196.2-1.7c0,0,0.1,0.1,0.1,0.1C196.2-1.7,196.2-1.7,196.2-1.7z"/>
					<path id="XMLID_180_" class="st0" d="M200.2,0.1L200.2,0.1c0.1,0.2,0.3,0.3,0.4,0.4L200.2,0.1z"/>
					<path id="XMLID_179_" class="st0" d="M183.9,23.5C183.9,23.5,183.9,23.5,183.9,23.5C183.9,23.6,183.9,23.5,183.9,23.5z"/>
					<path id="XMLID_178_" class="st0" d="M190.2,15.8c-0.6-0.4-0.6-0.8-1.3-1.2C189.1,14.8,189.7,15.6,190.2,15.8z"/>
					<path id="XMLID_177_" class="st0" d="M172.4,26.3C172.4,26.3,172.4,26.3,172.4,26.3C172.4,26.2,172.4,26.3,172.4,26.3z"/>
					<path id="XMLID_176_" class="st0" d="M188.8,14.6C188.8,14.6,188.8,14.6,188.8,14.6L188.8,14.6
						C188.8,14.5,188.8,14.5,188.8,14.6z"/>
					<path id="XMLID_175_" class="st0" d="M185.2,21.3c-0.1-0.1-0.2-0.2-0.3-0.2C185,21.1,185.1,21.2,185.2,21.3z"/>
					<path id="XMLID_174_" class="st0" d="M183.1,21.9l0.1,0C183.1,21.9,183.1,21.9,183.1,21.9z"/>
					<path id="XMLID_173_" class="st0" d="M185,19.8C185.1,19.8,185.1,19.9,185,19.8C185.1,19.8,185,19.8,185,19.8
						C185.1,19.8,185.1,19.9,185,19.8z"/>
					<path id="XMLID_172_" class="st0" d="M185.7,19.1c-0.1,0-0.1-0.1-0.1-0.1c0,0,0,0,0,0.1L185.7,19.1z"/>
					<path id="XMLID_171_" class="st0" d="M194.4,0.8c0.2,0.1,0.4,0.3,0.6,0.5C194.6,0.9,194.5,0.6,194.4,0.8z"/>
					<path id="XMLID_170_" class="st0" d="M172.6,26.6c-0.2-0.1-0.2-0.2-0.2-0.3c0,0,0,0,0,0.1C172.5,26.4,172.6,26.5,172.6,26.6z"
						/>
					<path id="XMLID_169_" class="st0" d="M180.1,15.3l0.2,0C180.2,15.2,180.2,15.2,180.1,15.3z"/>
					<path id="XMLID_168_" class="st0" d="M189.6,6.2L189.6,6.2C189.6,6.1,189.6,6.1,189.6,6.2z"/>
					<path id="XMLID_167_" class="st0" d="M180.6,14.8c0.2,0.2,0.4,0.3,0.5,0.3c0-0.1-0.1-0.1-0.1-0.2L180.6,14.8z"/>
					<path id="XMLID_166_" class="st0" d="M195,1.3C195,1.3,195,1.3,195,1.3C195,1.3,195,1.3,195,1.3z"/>
					<path id="XMLID_161_" class="st0" d="M194.2-0.8c-0.1,0.1,0.7,0.8,1.2,1.2c0.1,0.3-0.7-0.5-1.1-0.8c0.1,0.3,0.8,1,0.7,1.1
						c-0.1-0.1-0.2-0.2-0.4-0.3c0.6,0.7-0.2,0.3,0.5,1.1c-0.1-0.1-0.2-0.1-0.2-0.2c0.4,0.4,0.8,0.7,1.1,1c0,0.1,0.4,0.6-0.1,0.1
						c0,0-0.2-0.2-0.3-0.4l0.2,0.3c-0.8-0.7-0.2-0.3-0.8-0.8c0.2,0.3,0.7,1,0.4,0.9c-0.8-0.7-0.1-0.4-0.8-0.9l0.4,0.1
						c-1.3-1,0.1,0-1.2-1.1c-0.4,0,0.2,0.5-0.1,0.5c0.4,0.4,0.6,0.6,1,1c0.5,0.9-2-1.6-1.2-0.5c0.5,0.5,1.4,1.4,0.8,1.1l-0.8-0.8
						c-0.2,0.1,1.1,1.2,0.4,0.8c-0.3-0.3-0.2-0.4-0.3-0.4c-0.8-0.5,0.4,0.5,0.3,0.6L193.2,2c0,0.3,0.3,1,0.3,1.3
						c-0.2-0.2-0.4-0.5-0.7-0.6c0.2,0.6-0.5,0.4-1.2,0.2l0.6,0.7c0,0-0.3-0.2-0.4-0.4c-0.3-0.1,0.4,0.4,0.6,0.7
						c0,0.1-0.4-0.3-0.6-0.5c0.4,0.7,0.8,1.5-0.1,1l-0.2-0.2c-0.4-0.1,1.2,1.4,0.5,0.9L192,5c-0.5,0-0.2,0.9-1.4,0.2
						c0.9,0.9-0.7-0.1,0.6,1.1c-0.8-0.4-1-0.7-1.6-0.9c-0.1,0,0.7,0.8,0.8,1l-0.7-0.6l0.6,0.8l-0.9-0.7l0.1,0.2
						c0.1,0,0.4,0.2,0.5,0.4c0.2,0.4-0.7-0.2-1.1-0.5l0.3,0.8c-0.3-0.3-0.3-0.4-0.5-0.6c0.6,0.8-0.7-0.6-0.2,0.1
						c0.2,0.1,0.4,0.4,0.5,0.5c-0.5-0.3-0.6-0.2-0.5,0.1l-0.4-0.5C188,6.5,188.2,7,188,7.2c0.3,0.1,1.1,0.9,1.1,1l-0.7-0.6
						c0.4,0.4,0.3,0.2,0.8,0.8c-0.2,0-0.9-0.7-1.1-1l0.2,0.3c-0.2-0.2-0.3-0.3-0.6-0.6c0.4,0.5-0.9-0.5-0.1,0.3l-0.2-0.2
						c-0.2,0.2,0,0.5-0.2,0.7c0.6,0.6,0.4,0.5,0.9,1c-0.3-0.1-0.9-0.4-1-0.2c0.2,0.4,0.5,0.5,0.8,0.9c-0.6-0.5-0.7-0.3-1-0.8
						c-0.1,0.3-0.1,0.3,0.2,1c0.3,0.2,0.4,0.3,0.6,0.4c0.1,0.1-0.3-0.1-0.6-0.4l0-0.1c0.6,1-2.2-0.9-1.2,0.4l0-0.1l0.4,0.8
						c-0.2,0-0.4-0.4-0.8-0.7c0.7,1.1-0.5,0.2,0,1c-1.8-1.4-0.4,0.6-1.6-0.2l0.4,0.4c0.3,0.4-0.3-0.1-0.4-0.2
						c0.3,0.3,0.4,0.3,0.6,0.5c0.1,0.9-1.4,0.4-2.1,0.5c-0.3,0.1,1.9,2,0.8,1.3l-0.7-0.7c0.6,1.1-0.6,0.6-0.2,1.6
						c-0.2-0.2-0.4-0.4-0.3-0.4c-0.6-0.4-0.3,0.2,0.2,0.6c-0.1,0-0.4-0.3-0.6-0.5c-0.4-0.2,0.5,0.8,0,0.3c-0.1-0.1-0.2-0.2-0.2-0.2
						c0.2,0.3-0.3,0.1,0.4,0.7c-0.4-0.2,0.1,0.5-0.4,0.2c0.6,0.7-0.5-0.1,0.4,0.8c-1-0.9-1-0.5-0.6,0c-0.3-0.3-0.4-0.2-0.8-0.6
						c-0.1,0.1,0,0.3,0.6,0.8c-1.3-0.9,0.7,1.2-0.9-0.1c0.3,0.7,0.4,1.3,0.5,1.8c-1-0.9,0.1-0.3-0.9-1.3c0.2,0.6,0.9,1.5,0.5,1.5
						c-0.2-0.1-0.4-0.4-0.6-0.6c0.2,0.6-0.5,0.3-0.1,1c-0.1-0.1-0.2-0.2-0.2-0.3c0,0.1-0.2,0,0.2,0.4l-0.1-0.2
						c0.7,0.5,1.2,1.4,1.6,1.7c-1.2-1.3-0.5-0.1-2-1.7c0.1,0.1,0.2,0.3,0.6,0.6c-0.1,0-0.3-0.2-0.6-0.6c0.1,0.4,0.6,0.8,0.5,0.9
						c-0.2-0.2-0.3-0.3-0.5-0.6c0.4,0.5,0.7,0.9,0.5,0.8c-0.1-0.1-0.3-0.3-0.3-0.3c-0.1,0.2,0.9,1.4,0.3,1.2c-0.9-0.9-0.4-0.2-1.2-1
						l0.1,0.3l0.4,0.3c-0.1,0.1,0.4,0.7,0.1,0.5l-0.3-0.4l0,0.3l0.4,0.2c0.3,0.5,1.1,1,0.7,0.9c-0.1-0.1-0.1,0.1-0.6-0.3
						c0,0,0,0,0,0c0.2,0.3,0.5,0.6,0.2,0.5c-0.3-0.2-0.9-0.9-1.1-1c0.6,0.7,0,0.4,0.7,1.1c-0.2-0.2-0.6-0.6-0.7-0.7l0.5,0.6
						c-0.2-0.1-0.3-0.2-0.6-0.5c-0.2,0,1.1,0.9,0.5,0.7c0-0.1-0.1-0.1-0.2-0.2c-0.4-0.1,0.1,0.6-0.3,0.5c-0.9-0.7-0.1-0.3-0.8-0.9
						c0,0.3,0.6,1.3,0.2,1.4l0.1,0c1.1,1.1-0.7-0.4-0.3,0.2c-0.1-0.1-0.6-0.6-0.5-0.5c-0.3,0,0,0.5,0.2,1.1l-0.3-0.3
						c-0.3-0.2-0.3,0.1-0.6,0c0.3,0.3,0.2,0.3,0.6,0.7c-2-1.3,0.5,1.4-1.2,0.3c0,0-0.2-0.3-0.2-0.3l0.1,0.5c0.5,0.5,0.3,0.3,0.8,0.6
						c0.3,0.3,0.5,0.6,0.4,0.6c-0.3-0.4-0.8-0.8-1.1-1c0.2,0.1,0.3,0.3,0.5,0.5c-1-0.7,1,1,0.3,0.5l-0.3-0.3
						c0.1,0.2,0.4,0.6,0.3,0.5c-0.6-0.5-0.2-0.3-0.7-0.8c0,0.1,1,1.2,0.3,0.7c-0.1-0.2-0.1-0.2-0.2-0.4c-0.8-0.6-0.6-0.4-0.8-0.4
						l0,0l-0.4-0.2l0.2,0.1c1.4,1.5,0.1,0.5,1,1.5c-0.8-1-0.5-0.5-1.2-1.2c-0.2-0.1-0.5-0.3-0.6-0.5c0.5,0.6-0.5-0.3,0.2,0.5
						c-0.2-0.2-0.1,0-0.6-0.5c0.1,0.2,0.4,0.3,0.7,0.6c0.6,0.8-1.2-0.5-0.3,0.6c0.3,0.5,1,1.2,1.2,1.7c-0.4-0.3-0.7-0.8-0.7-0.8
						c-0.4-0.2-0.4-0.1-0.2,0.2c-0.2-0.2-0.3-0.3-0.6-0.5c0,0.1,0.7,0.8,0.4,0.6c-0.2-0.2-0.6-0.6-0.8-0.9c0.1,0.3,0.5,0.7,0.6,1
						c-0.4-0.3-0.5-0.6-0.7-0.8c0.1,0.2,0.1,0.5,0.7,1.1l0.3,0.1c0,0.1-0.5-0.5-0.6-0.6c-0.4-0.5,0.3,0.1,0.5,0.3l0.1,0.2
						c1.3,1.1,0-0.4,0.2-0.4l0.9,0.9l-0.7-0.8c0.3,0.2,0.8,0.7,0.9,0.8c0.5,0.3-0.3-0.4,0.3,0c0.1,0.1,0.1,0.1,0.2,0.1l-0.2-0.3
						c0.2,0.2,0.7,0.6,0.5,0.5c0.7,0.4-0.5-0.9,0.3-0.3l0,0.1c-0.1-0.5-0.7-0.6-1.3-1.5l1.7,1.4l-0.7-0.6c0,0,0.1,0,0.4,0.3
						c-0.4-0.5-0.3-0.3-0.7-0.7c0.7,0.5-0.1-0.5,1,0.4c-0.5-0.5-0.5-0.3-0.7-0.7c1.2,1-0.1-0.3,0.5,0.1c0.6,0.6,0.2,0.4,0.8,0.8
						c-1-1,0.4,0,0.2-0.2c-0.8-0.7-0.2-0.5-0.3-0.8c0.3,0.3,0.6,0.2,1,0.3l0.1,0.1c-0.8-0.8-0.5-0.7-0.6-1c0.5,0.5,0.7,0.6,0.8,0.9
						l0.1-0.1c-0.2-0.3-0.4-0.4-0.4-0.5l0.6,0.6c0.1-0.1-0.5-0.9,0-0.6c-0.6-0.5-1.7-1.3-1.9-1.8c0.3,0.3,0.8,0.8,0.9,0.9
						c0,0-0.2-0.3-0.1-0.2l0.5,0.5c0.3,0.1-0.4-0.4-0.3-0.4c0.4,0.4,0.3,0.3,0.7,0.6c0,0.1-0.2-0.1-0.1,0.1c0.1,0,0.4,0.2,0.8,0.5
						c-0.3-0.2-0.6-0.5-0.6-0.6c0.1-0.1,0.6,0.4,0.8,0.6c-0.3-0.3,0.1-0.1-0.6-0.7c0,0,0.3,0.2,0.5,0.4c-0.2-0.3,0.2-0.3-0.6-0.9
						l-0.1,0c0,0,0,0,0,0c0,0,0,0,0,0l0,0c-0.5-0.8,0.7,0,0.6-0.5L179,25c-0.2-0.3,0.1-0.4-0.3-0.9c0,0,0.5,0.3,0.7,0.5
						c-0.1-0.2-0.3-0.5,0.1-0.3c0.3,0.4,0.4,0.3,0.2,0.3c0.3,0.1,0.7,0.4,0.2-0.3c0.5,0.6,0.8,0.6,0.7,0.4l-0.5-0.3
						c0-0.1,0.1-0.1,0.2-0.1l0.7,0.7c1.1,0.6-1.2-1.8,0.5-0.6c-0.5-0.5-0.5-0.2-1-0.8c0.2,0,1.3,0.9,1.4,0.8c0.5,0.2-1-1.1-0.5-1
						c-0.3-0.2-1-0.9-1.1-1.2c0.2,0,1.2,0.9,1.4,1.1c0,0-0.1,0-0.2-0.1c0.1,0.1,0.1,0.3,0.5,0.5l-0.2-0.3c0.3,0.2,0.4,0,0.8,0.5
						c-0.2-0.3-0.4-0.4-0.6-0.5c0.5,0.2,0.2-0.2,0.6-0.1c-0.2-0.1-0.5-0.4-0.5-0.4c0.5,0.1-0.4-0.5-0.4-0.8c0.5,0.3,0.9,0.9,0.7,0.5
						c0.3,0.2,0.7,0.6,0.9,0.9c-0.4-0.6,0.5,0.1,0.7,0.1l0.2,0.3c-0.1-0.2-0.1-0.2,0-0.2l-0.6-0.4c0.1,0,0.2,0,0.4,0.2
						c-0.3-0.4-0.9-0.8-1.3-1.3c0.3,0.2-0.1-0.4,0.6,0.2c-0.4-0.1,0.7,0.6,0.7,0.9c-0.1-0.1,0-0.1,0.1-0.1c0.1,0.1,0.1,0.1,0.2,0.2
						c0.8,0.4-0.7-0.8-0.6-0.9c0.4,0.4,0.8,0.7,0.7,0.5c-0.1,0.1-0.7-0.6-0.9-0.9c0.4,0.2-0.1-0.3,0-0.3l-0.2-0.1
						c-0.4-0.4-0.3-0.4-0.3-0.6c0.3,0.3,0.2,0.3,0.3,0.4c-0.6-0.7,0.9,0.5,0.5,0c0.3,0.2,0.7,0.7,1,0.8c-0.4-0.6,0.7,0.4,0.3-0.1
						c-0.6-0.4-0.4-0.3-0.9-0.9l0.2,0.5l-0.6-0.8c-0.1,0.1,0.2,0.4,0.1,0.4c-0.4-0.5-0.2-0.3-0.7-0.7c0.9,0.6-0.3-0.6,0.3-0.2
						l1.3,1.2c0.7,0.4-0.4-0.9,0.1-0.8l-0.3-0.1c-0.5-0.5,0-0.2-0.1-0.4c0.4,0.4,0.6,0.5,0.9,0.7c-0.3-0.3,0.2-0.1-0.7-0.9l0.7,0.4
						c0.4,0.1-1.1-1.3-0.8-1.3c0.4,0.5,0.8,0.7,1,1.1c0.1,0,0.2,0-0.1-0.3c0.3,0.2-0.5-0.7,0-0.3c-0.2-0.2-0.6-0.6-0.5-0.6
						c0.1,0.1,0.2,0.2,0.2,0.2c-0.2-0.2-0.2-0.4-0.7-0.8c1.5,1.1,0.3-0.5,1.6,0.4c0-0.2-0.1-0.5,0-0.6c0.1,0.1,0.2,0.2,0.2,0.2
						c0.5,0.2-1.2-1.2-0.6-1c0.8,0.6,0.3,0.4,0.6,0.6c1.5,1.3,0-0.4,0.9,0.3l0.1,0.1c0.6,0.4-0.4-0.7-0.1-0.7c0,0,0.1,0.1,0.2,0.2
						c-0.6-0.8-0.7-1.2-0.8-1.5c0.5,0.6,0.2,0.3,0.8,0.8c0-0.1-0.9-0.8-1-1.1c0.3,0.2,0.7,0.4,1.3,1l-0.1,0.1
						c0.8,0.7,0.1-0.2,0.3-0.1l0.3,0.3c0-0.3-0.8-1.1-0.6-1.2l-0.3-0.2c-0.8-0.9,0.6,0.4,0-0.3l0.9,0.8c-0.2-0.3-0.6-1-0.7-1.3
						c0.6,0.7,0.8,1.1,1.1,1.5c0.1-0.1,0.1-0.3-0.3-0.7c0.1,0.1,0.2,0.3,0.1,0.2c-0.6-0.7-0.9-1.1-0.7-1.2c1.7,1.6,0.7,0.1,2.1,1.2
						c-0.4-0.8,0.7-0.2,0.8-0.5c-1.4-1.1,0-0.1-1.3-1.3c0-0.1,0-0.1,0.1-0.1l1,0.6c0.4,0.3,0.2,0.3,0.6,0.6c0.2,0,0.6,0.5,1.1,0.7
						c-0.5-0.4-0.6-0.7-0.4-0.6l-0.7-0.5c-0.6-0.8,1.3,0.9,0.7,0.1l0.4,0.4c-0.2-0.3,0.3-0.3-0.7-1.4c0.2,0.1,0.6,0.4,0.6,0.6
						c0.4-0.1-0.7-1.6,0.1-1.1l0.3,0.3c-0.1-0.1-0.6-0.6-0.2-0.4c0.1,0.1,0.3,0.3,0.4,0.3c-0.1-0.1-0.5-0.6-0.2-0.5l0.3,0.4
						c0.6,0.2-0.6-1.2-0.7-1.6c1,0.9,1.4,1,1.7,1.1l0.1,0.1c0.4-0.1-0.4-1.2-0.6-1.8c1.2,0.8,0.9-0.1,1.7,0.2
						c-0.2-0.1-0.8-0.7-0.8-0.8c0.2,0.1-0.5-0.8,0.3,0.1l0,0c0.9,0.8,0.8,0.4,0.9,0.4l-1.2-1.1c1.9,1.3-0.1-1.2,1.6,0.1
						c-0.2-0.3-0.2-0.4-0.4-0.7l0.6,0.6c0.3,0,0.5,0,0.5-0.3l0.4,0.5c0.1-0.1-1.7-1.8-1.6-1.9l1,0.8c0.2-0.2,1.2,0.4,0.5-0.6
						c0.1,0.1,0.4,0.4,0.4,0.4c0.1-0.1,0.9,0.2-0.4-0.9c0.8,0.8,0.3-0.1,0-0.6l0.6,0.6c-0.7-0.8-0.9-1-1-1.3c0.1,0,0.5,0.4,0.3,0.3
						c0.4,0.2-0.5-0.6-0.1-0.4l0.4,0.4c0.1-0.1-0.1-0.2-0.5-0.7c-0.2-0.3,0.3,0,0.9,0.5c-0.3-0.3-0.7-0.8-0.5-0.7
						c0.2,0.2,0.3,0.3,0.4,0.4c0.6,0.2-0.5-0.9,0.2-0.5c0.2,0.2,0.3,0.3,0.4,0.3C197,7,196.9,7,196.9,7c0.6,0.5,0.8,0.5,1.5,1.3
						c-0.3-0.5-1.1-1.5-0.8-1.3c0.1,0,0.1,0.1,0.2,0.2l0.1,0.1c0.1,0,0,0,0-0.1c0.1,0.1,0.2,0.1,0.2,0.1c0.5,0.4,0.4,0.1,0.4,0.1
						c-0.6-0.6-0.5-0.5-1-1c0.1,0,0.1,0.1,0.1,0.1c0,0,0,0,0,0.1c0,0,0,0-0.1-0.1c0,0.1,0,0.1-0.1,0.2c-0.3-0.3-0.5-0.6-0.1-0.4
						c-0.4-0.4-0.8-0.8-0.9-1c0.9,0.7,1.5,1,2.1,1.5c-0.2-0.5,0.1-0.6-1-1.8c-0.1-0.2,0.4,0.3,0.6,0.4c0.1,0.1,0,0.1,0.2,0.3
						c-0.2-0.4,0.1-0.4-0.7-1.1c0.5,0.2,0.7,0.8,0.7,0.5l0.2,0.3c1.6,0.9-1.6-2.4,0.4-1.2c-0.1-0.1-0.2-0.1-0.3-0.2
						c1.1,0.3,0-1.4,1.6-0.7c0.3,0.1-0.2-0.4-0.5-0.8l0.7,0.6l-0.7-0.8c-0.4-0.7,1.9,1.2,1,0l-0.5-0.4c0.2,0,0-0.5,0.5,0
						c-0.1-0.1-0.4-0.5-0.2-0.3l0.4,0.3l-0.4-0.7c0.4,0.1,1.4,1.3,1.6,1.2c-0.1-0.2-0.8-1.2-1.1-1.3c0,0-0.3-0.1-0.6-0.4l-0.1-0.2
						c-1-1-2-2-2.9-2.5l0.5,0.7L197.3-2l0.1-0.1c-0.5-0.4-0.1,0,0.1,0.3c-0.3-0.2-0.5-0.4-0.6-0.5l0.9,1c-0.4-0.4-0.7-0.8-1-0.9
						c0.4,0.5,0.9,0.8,1.2,1.1c-0.5-0.4-0.9-0.7-0.5-0.3c-0.3-0.2-0.4-0.4-0.5-0.5c0.3,0.4,0,0.3,0.5,0.8c-0.6-0.5,0,0.3-1-0.6
						c0.2,0.2,0.7,0.8,0.7,0.9c-1.1-1.2-0.3,0.1-1.5-1c1,1,0.2,0.7,0.7,1.4c-0.1-0.1-0.2-0.3-0.2-0.2c-0.2,0-0.5-0.3-0.7-0.4
						c0.9,0.8,0.9,1.1,1.4,1.7c-0.9-0.7-1-1-1.8-1.7c0.7,0.6,0.6,0.8,1.2,1.3c-0.6-0.4-0.3-0.2-1.1-0.8c1.1,1,0.1,0.2,0.7,0.9
						c-0.6-0.4-1-0.9-0.8-0.5C194.5-0.4,194.2-0.8,194.2-0.8z M193.7,3.5C193.7,3.5,193.7,3.5,193.7,3.5
						C193.7,3.4,193.7,3.4,193.7,3.5C193.7,3.4,193.7,3.4,193.7,3.5z M193.5,3.7c0,0,0.1,0,0.1-0.1c0.2,0.2,0.4,0.4,0.4,0.4
						C193.9,3.9,193.7,3.9,193.5,3.7z M198.2,7.2c0.1,0.1-0.1,0-0.2-0.1c0,0,0-0.1,0-0.1c0,0,0,0-0.1-0.1
						C198.1,7,198.2,7.1,198.2,7.2z"/>
					<path id="XMLID_160_" class="st0" d="M197.5,6.4C197.5,6.4,197.5,6.4,197.5,6.4c-0.1-0.1-0.1-0.1-0.2-0.2
						C197.4,6.3,197.4,6.4,197.5,6.4C197.5,6.4,197.5,6.4,197.5,6.4z"/>
					<path id="XMLID_159_" class="st0" d="M178.3,25.3L178.3,25.3C178.3,25.3,178.3,25.3,178.3,25.3
						C178.3,25.3,178.3,25.3,178.3,25.3z"/>
					<polygon id="XMLID_158_" class="st0" points="189.6,5.6 189.7,5.8 189.6,5.6 					"/>
					<path id="XMLID_157_" class="st0" d="M175.1,24.6c-0.1,0-0.1-0.1-0.2-0.1C174.9,24.5,175,24.5,175.1,24.6z"/>
					<path id="XMLID_156_" class="st0" d="M174.5,25l-0.3-0.1C174.3,24.9,174.4,24.9,174.5,25z"/>
					<path id="XMLID_155_" class="st0" d="M173.8,25.1c0.1,0.1,0.2,0.2,0.3,0.3c0,0,0,0,0,0L173.8,25.1z"/>
					<path id="XMLID_154_" class="st0" d="M178.9,18.1C178.9,18,178.9,18,178.9,18.1C178.8,17.9,178.8,17.9,178.9,18.1z"/>
					<path id="XMLID_153_" class="st0" d="M178.6,21.3c-0.1-0.1-0.2-0.2-0.2-0.3C178.3,20.9,178.3,21,178.6,21.3z"/>
					<path id="XMLID_152_" class="st0" d="M180.1,15.3C180.1,15.3,180.1,15.3,180.1,15.3C180.1,15.3,180.1,15.3,180.1,15.3
						L180.1,15.3z"/>
					<path id="XMLID_151_" class="st0" d="M178.5,20.9C178.3,20.8,178.3,20.8,178.5,20.9C178.4,21,178.5,21,178.5,20.9z"/>
					<path id="XMLID_150_" class="st0" d="M171.9,26.5L171.9,26.5C171.9,26.6,171.9,26.6,171.9,26.5L171.9,26.5z"/>
					<path id="XMLID_149_" class="st0" d="M172,26.6L172,26.6C172,26.7,172,26.7,172,26.6z"/>
					<path id="XMLID_148_" class="st0" d="M172.1,26.9l-0.1-0.2C172,26.7,172,26.7,172.1,26.9z"/>
					<path id="XMLID_147_" class="st0" d="M172.7,26.3l-0.2-0.2C172.5,26.1,172.6,26.2,172.7,26.3z"/>
					<path id="XMLID_146_" class="st0" d="M172.8,26.1c-0.1,0-0.6-0.3-0.5-0.2l0.2,0.2C172.1,25.7,173.1,26.4,172.8,26.1z"/>
					<path id="XMLID_145_" class="st0" d="M176.2,27.9l-0.3,0c0.3,0.2,0.6,0.5,0.6,0.6C177.3,29,175.9,28,176.2,27.9z"/>
					<path id="XMLID_143_" class="st0" d="M176.9,27.9c0,0.2,0.3,0.3,0.5,0.4C177.2,28.1,177.1,28,176.9,27.9z"/>
					<path id="XMLID_142_" class="st0" d="M179.7,24.8l0.6,0.5C180.2,25.2,180,25.2,179.7,24.8z"/>
					<polygon id="XMLID_141_" class="st0" points="177.3,21.6 176.9,21.3 177.4,21.8 					"/>
					<polygon id="XMLID_140_" class="st0" points="181.6,24.9 181.7,25 181.6,24.8 					"/>
					<path id="XMLID_139_" class="st0" d="M186.1,19.7l-0.7-0.6C185.5,19.2,186.2,20,186.1,19.7z"/>
					<path id="XMLID_138_" class="st0" d="M187.4,16.9c0.4,0.3,0.6,0.4,0.3,0.1C187.7,17,187.3,16.8,187.4,16.9z"/>
					<polygon id="XMLID_137_" class="st0" points="194.6,11.4 194.8,11.6 194.7,11.4 					"/>
				</g>
			</g>
		</g>
	</g>
</g>
</svg>
